<svg width="38" height="38" viewBox="0 0 38 38" fill="none" xmlns="http://www.w3.org/2000/svg">
<rect x="0.5" y="0.5" width="37" height="36.63" rx="3.5" stroke="#C3C6D6"/>
<path d="M23 15.63V12.63H15V15.63H13V10.63H25V15.63H23ZM11 17.63C11 17.63 11.0958 17.63 11.2875 17.63C11.4792 17.63 11.7167 17.63 12 17.63H26C26.2833 17.63 26.5208 17.63 26.7125 17.63C26.9042 17.63 27 17.63 27 17.63H25H13H11ZM25 20.13C25.2833 20.13 25.5208 20.0342 25.7125 19.8425C25.9042 19.6508 26 19.4133 26 19.13C26 18.8467 25.9042 18.6092 25.7125 18.4175C25.5208 18.2258 25.2833 18.13 25 18.13C24.7167 18.13 24.4792 18.2258 24.2875 18.4175C24.0958 18.6092 24 18.8467 24 19.13C24 19.4133 24.0958 19.6508 24.2875 19.8425C24.4792 20.0342 24.7167 20.13 25 20.13ZM23 26.63V22.63H15V26.63H23ZM25 28.63H13V24.63H9V18.63C9 17.78 9.29167 17.0675 9.875 16.4925C10.4583 15.9175 11.1667 15.63 12 15.63H26C26.85 15.63 27.5625 15.9175 28.1375 16.4925C28.7125 17.0675 29 17.78 29 18.63V24.63H25V28.63ZM27 22.63V18.63C27 18.3467 26.9042 18.1092 26.7125 17.9175C26.5208 17.7258 26.2833 17.63 26 17.63H12C11.7167 17.63 11.4792 17.7258 11.2875 17.9175C11.0958 18.1092 11 18.3467 11 18.63V22.63H13V20.63H25V22.63H27Z" fill="#191C1E"/>
</svg>
