<svg width="74" height="74" viewBox="0 0 74 74" fill="none" xmlns="http://www.w3.org/2000/svg">
<path d="M20 70H30V45H20V70V70M60 70H70V20H60V70V70M40 70H50V55H40V70V70M40 45H50V35H40V45V45M10 90C7.25 90 4.89583 89.0208 2.9375 87.0625C0.979167 85.1042 0 82.75 0 80V10C0 7.25 0.979167 4.89583 2.9375 2.9375C4.89583 0.979167 7.25 0 10 0H80C82.75 0 85.1042 0.979167 87.0625 2.9375C89.0208 4.89583 90 7.25 90 10V80C90 82.75 89.0208 85.1042 87.0625 87.0625C85.1042 89.0208 82.75 90 80 90H10V90M10 80H80V80V80V10V10V10H10V10V10V80V80V80V80M10 10V10V10V10V80V80V80V80V80V80V10V10V10V10" fill="white"/>
</svg>
